<?xml version="1.0" encoding="UTF-8" standalone="no"?>
<!-- Created with Inkscape (http://www.inkscape.org/) -->

<svg
   xmlns:dc="http://purl.org/dc/elements/1.1/"
   xmlns:cc="http://creativecommons.org/ns#"
   xmlns:rdf="http://www.w3.org/1999/02/22-rdf-syntax-ns#"
   xmlns:svg="http://www.w3.org/2000/svg"
   xmlns="http://www.w3.org/2000/svg"
   xmlns:sodipodi="http://sodipodi.sourceforge.net/DTD/sodipodi-0.dtd"
   xmlns:inkscape="http://www.inkscape.org/namespaces/inkscape"
   version="1.0"
   width="758"
   height="758"
   id="svg2"
   sodipodi:docname="car__.svg"
   inkscape:version="0.92.2 (5c3e80d, 2017-08-06)">
  <metadata
     id="metadata26">
    <rdf:RDF>
      <cc:Work
         rdf:about="">
        <dc:format>image/svg+xml</dc:format>
        <dc:type
           rdf:resource="http://purl.org/dc/dcmitype/StillImage" />
      </cc:Work>
    </rdf:RDF>
  </metadata>
  <sodipodi:namedview
     pagecolor="#ffffff"
     bordercolor="#666666"
     borderopacity="1"
     objecttolerance="10"
     gridtolerance="10"
     guidetolerance="10"
     inkscape:pageopacity="0"
     inkscape:pageshadow="2"
     inkscape:window-width="1920"
     inkscape:window-height="1015"
     id="namedview24"
     showgrid="false"
     inkscape:zoom="0.88061847"
     inkscape:cx="235.55144"
     inkscape:cy="444.6032"
     inkscape:window-x="0"
     inkscape:window-y="0"
     inkscape:window-maximized="1"
     inkscape:current-layer="svg2" />
  <defs
     id="defs4" />
  <path
     style="fill:#000000;stroke:none;stroke-width:1.11844826"
     d="m 734.39128,315.2431 c -5.75771,0.13407 -28.77982,13.07759 -36.59423,22.50877 -6.1554,7.42894 -21.66334,50.05031 -30.05829,75.84476 -56.88651,-21.86237 -156.55814,-55.45157 -194.12067,-50.0855 -49.10494,7.01499 -298.35026,138.61883 -331.08689,139.78799 -32.73663,1.16917 -106.947305,13.44007 -104.017943,29.51932 3.659674,20.08795 68.921303,28.94487 140.463643,47.00756 77.88868,19.665 148.51428,21.04632 199.95756,12.86215 51.44329,-8.18415 69.49995,-9.42247 104.57491,-23.45246 35.07496,-14.02998 54.42959,-29.17825 121.07202,-60.74572 40.59275,-20.36574 78.16861,-41.82713 116.92379,-65.2669 22.90891,-12.11156 22.43701,-45.98971 23.86087,-67.1294 0.29734,-10.40683 -0.95261,-21.70503 -0.55922,-27.92626 0,0 -2.70864,-23.0296 -9.2272,-32.53985 -0.19042,-0.27782 -0.59272,-0.39833 -1.18835,-0.38446 z"
     id="path4045"
     inkscape:connector-curvature="0"
     sodipodi:nodetypes="sscssssssccccss" />
  <path
     style="fill:#000000;fill-opacity:1;stroke:none;stroke-width:1.11844826"
     d="m 523.01717,474.20182 c 0,0 -5.46582,34.68817 -8.4575,47.15348 -6.3938,20.22449 -28.07583,52.27248 -47.86684,52.85298 -10.96948,0 -50.21352,-4.91752 -71.30164,-11.18906 -5.14742,-1.53083 -10.16833,-6.31449 -13.96116,-14.2402 -4.55028,-9.50854 -8.7646,-18.81921 -8.7646,-18.81921 0,0 17.73964,-55.47412 28.70912,-90.87563 10.96948,-35.40152 42.8807,-91.74478 61.32938,-86.26004 18.44868,5.48475 70.12602,41.38945 70.12602,41.38945 l -6.02555,81.45769 z"
     id="path3358"
     inkscape:connector-curvature="0"
     sodipodi:nodetypes="cccsscssccc" />
  <path
     style="fill:#982e37;fill-opacity:1;stroke:none;stroke-width:1.11844826"
     d="m 687.61116,409.56407 c 0,0 -2.70721,8.54386 -9.90691,10.61529 -7.18953,2.06852 -18.1618,4.6986 -22.69048,6.63947 -4.52869,1.94086 -128.63717,52.6767 -128.63717,52.6767 0,0 -1.49735,-37.70664 -2.19937,-45.54582 -2.93658,-25.40938 -12.50825,-58.2388 -40.11123,-56.2851 -52.43873,3.79972 -62.71692,82.8113 -80.18452,139.49397 -2.58782,5.8226 -7.76346,18.7617 -10.99824,21.34953 -3.23478,2.58782 -36.26739,8.01179 -58.26387,9.3057 -21.99648,1.29391 -53.69728,4.52868 -75.0468,-0.64696 C 179.80073,533.7739 43.897859,506.77148 35.079139,485.70612 c -3.99079,-10.04788 -7.60901,-41.38335 -1.94086,-62.1077 0.64695,-5.17564 13.58606,-47.22772 16.17388,-58.22596 2.58782,-10.99824 29.75992,-52.40336 33.64165,-56.28509 12.81941,-18.26486 42.250261,-28.76681 58.225971,-36.22949 20.70257,-9.70433 42.69904,-18.11475 42.69904,-18.11475 30.30103,-36.61374 91.48337,-81.08244 128.09712,-98.33718 0,0 7.76346,-3.88173 16.82083,-7.11651 9.05738,-3.23476 58.39065,-12.62019 82.97495,-12.62019 79.80494,-3.7587 163.41178,-0.16953 233.29295,21.15482 14.61844,4.63973 19.50182,16.69662 27.91224,31.57659 8.41041,14.87997 18.7617,42.05209 18.7617,42.05209 8.49386,13.46925 18.694,27.77 27.17211,42.05208 2.58782,4.52869 18.7617,43.99296 21.99648,48.52164 3.23477,4.52869 6.19507,20.31046 6.19507,24.19219 0,2.2253 1.31654,11.25083 1.13508,15.8296 -0.13507,3.40827 -2.88589,4.32336 -3.05472,3.09932 0,0 -1.68761,-23.71246 -2.33457,-26.94724 -0.64695,-3.23478 -3.88173,-14.233 -3.88173,-14.233 0,0 -1.29391,-6.46955 -9.05737,-4.52869 -13.31085,4.12232 -20.55647,23.06396 -23.93734,34.28861 -8.13843,21.7714 -6.87926,34.83968 -18.36046,55.83681 z"
     id="path3000"
     inkscape:connector-curvature="0"
     sodipodi:nodetypes="cssccccsscccsccccsccsccssscscccc" />
  <path
     sodipodi:nodetypes="cscccsc"
     inkscape:connector-curvature="0"
     id="path3322"
     d="m 473.06763,264.44746 c 1.94086,-3.23477 22.77357,-44.80966 31.18399,-58.39572 8.41042,-13.58606 32.21761,-53.52752 32.21761,-53.52752 -75.67872,-9.06182 -145.94127,-3.42785 -221.40111,4.645 -35.68869,18.65498 -102.60646,65.46279 -128.10219,98.63236 1.94086,0.64695 25.19842,4.76415 99.59826,6.70502 74.39984,1.94086 186.50344,1.94086 186.50344,1.94086 z"
     style="fill:#1a1a1a;fill-opacity:1;stroke:none;stroke-width:1.11844826" />
  <path
     sodipodi:nodetypes="cscsccssssc"
     inkscape:connector-curvature="0"
     id="path3301"
     d="m 530.3041,258.88527 c 0,0 -3.19041,-23.05304 -3.85764,-26.41718 -0.66723,-3.36414 -4.67062,-20.18486 -4.67062,-20.18486 0,0 25.38148,-46.05441 30.02541,-51.13501 5.5656,-6.08893 8.1725,-6.81603 19.3497,-8.07394 21.93842,-1.0982 59.09379,1.52135 80.06771,14.80224 3.4314,2.23423 10.88465,8.50948 15.10637,17.26056 5.26868,10.92135 14.5663,29.69954 17.55162,37.23625 1.26303,3.18863 4.30046,11.35653 -0.37015,12.70218 -4.67062,1.34566 -49.34405,7.01326 -66.62286,10.11794 -28.03844,5.03801 -71.71722,12.3881 -86.57954,13.69182 z"
     style="fill:#1a1a1a;stroke:none;stroke-width:1.11844826" />
  <path
     style="fill:#394747;stroke:none;stroke-width:1.11844826;fill-opacity:1"
     d="m 468.15102,261.98916 c 1.94086,-3.23478 21.67879,-37.17813 29.21734,-51.26664 15.29368,-28.58172 32.75145,-55.4047 32.75145,-55.4047 -67.50878,-8.01884 -137.63401,-3.60487 -213.09385,4.46798 0,0 -28.07001,14.08794 -57.18299,35.43746 -20.83201,13.26928 -67.06182,53.90276 -69.2662,59.62222 5.83863,1.25114 27.26461,3.45933 101.66445,5.4002 74.39984,1.94086 175.9098,1.74348 175.9098,1.74348 z"
     id="path2996"
     inkscape:connector-curvature="0"
     sodipodi:nodetypes="csccccsc" />
  <path
     style="fill:#394747;stroke:none;stroke-width:1.11844826;fill-opacity:1"
     d="m 534.78911,251.81027 c 0,0 -2.84856,-15.18188 -3.49552,-18.41666 -0.64695,-3.23477 -4.52868,-19.40865 -4.52868,-19.40865 0,0 24.70834,-44.17204 29.11298,-49.1686 4.94363,-5.60797 7.92416,-6.55392 18.7617,-7.76346 21.27175,-1.05597 57.29804,1.46284 77.63461,14.23302 3.32713,2.14831 8.02608,6.36719 12.1046,14.78513 5.13112,10.59051 14.16762,27.96764 15.28186,31.07261 2.62329,7.31015 6.10577,12.61265 1.44421,13.28572 -8.9613,1.29391 -37.93705,5.40502 -58.14754,8.51432 -16.82082,2.58782 -88.16822,12.86657 -88.16822,12.86657 z"
     id="path2998"
     inkscape:connector-curvature="0"
     sodipodi:nodetypes="cscsccssssc" />
  <path
     style="fill:#da2e60;fill-opacity:1;stroke:none;stroke-width:1.11844826"
     d="m 364.55531,343.66633 c 0,0 113.72292,-27.63361 168.28158,-40.0333 54.55867,-12.3997 175.72141,-41.45041 175.72141,-41.45041 l -1.53302,-2.65173 c 0,0 -131.67514,31.34816 -179.14826,41.97648 -47.47312,10.62831 -165.80165,37.90764 -165.80165,37.90764 z"
     id="path3006"
     inkscape:connector-curvature="0"
     sodipodi:nodetypes="csccscc" />
  <path
     style="fill:#da2e37;fill-opacity:1;stroke:none;stroke-width:1.11844826"
     d="m 96.758661,315.21317 c 0,0 25.539039,4.02551 77.861379,7.17272 52.32233,3.14721 107.77739,4.06089 131.84477,5.11421 -9.07594,4.17472 -12.73713,6.31775 -17.06454,9.85835 -4.32741,3.54062 -7.16877,6.80356 -12.84802,11.92216 -15.34264,-0.7868 -145.99312,-8.01147 -149.14033,-9.58508 -3.14721,-1.5736 -37.190119,-6.69697 -37.190119,-6.69697 4.171879,-8.34376 6.015372,-14.65648 6.53686,-17.78539 z"
     id="path3364"
     inkscape:connector-curvature="0"
     sodipodi:nodetypes="cscscscc" />
  <path
     style="fill:#742e37;fill-opacity:1;stroke:none;stroke-width:1.11844826"
     d="m 280.75935,351.26432 c 0,0 -83.02676,-4.22822 -126.46205,-8.45643 -43.4353,-4.22822 -77.645407,-9.99396 -77.645407,-9.99396 l 0.768776,-2.3063 c 0,0 51.122961,7.30328 88.792511,10.37834 37.66954,3.07507 116.85247,7.68766 116.85247,7.68766 z"
     id="path3776"
     inkscape:connector-curvature="0" />
  <path
     style="fill:#202020;fill-opacity:1;stroke:none;stroke-width:1.11844826"
     d="m 276.6901,488.28675 c 0,0 -15.11403,16.04083 -18.91555,20.99566 -5.45397,7.10858 -12.17761,4.11988 -18.68006,4.11988 -69.7399,-11.11032 -140.116761,-23.27633 -187.506876,-37.84844 -1.814,-0.58058 -2.724204,-2.65781 -4.364554,-5.3644 -5.883899,-9.70844 -10.551876,-25.35448 -10.904512,-28.66922 -0.65106,-2.42667 0.725325,-4.24405 5.803796,-3.00693 75.853936,19.69676 134.028856,25.53246 235.307986,38.0428 9.46016,1.16855 1.78365,8.43852 -0.74023,11.73065 z"
     id="path3780"
     inkscape:connector-curvature="0"
     sodipodi:nodetypes="csccsccsc" />
  <path
     style="fill:#e22e49;fill-opacity:1;stroke:none;stroke-width:1.11844826"
     d="m 343.91692,325.52955 c 0,0 19.81047,-17.35885 47.12837,-26.88835 27.31789,-9.52951 88.94199,-27.3179 91.48319,-27.3179 2.54119,0 208.37837,-33.67089 208.37837,-33.67089 l 12.706,20.32959 -340.72652,78.34765 c -5.16494,-5.91322 -10.63955,-10.0242 -18.96941,-10.8001 z"
     id="path4136"
     inkscape:connector-curvature="0"
     sodipodi:nodetypes="csscccc" />
  <ellipse
     style="fill:#80272e;fill-opacity:1;stroke:none;stroke-width:1.17752385"
     id="path3226"
     transform="matrix(1,0,0.16583759,0.98615308,0,0)"
     cx="608.26367"
     cy="297.81427"
     rx="8.3953667"
     ry="12.482638" />
  <path
     style="fill:#532727;stroke:none;stroke-width:1.11844826;fill-opacity:1"
     d="m 668.07644,293.46019 c 0,0 -15.14373,5.06731 -19.62821,5.9642 -2.28316,0.45664 -3.1554,-0.0682 -3.2083,-1.32093 -0.0554,-1.31078 -0.24701,-2.89821 -0.23887,-3.98529 0.003,-0.41509 -0.11848,-1.82761 1.4348,-2.24105 1.52712,-0.40646 13.54305,-3.4952 19.04292,-5.56192 2.08907,-0.78502 2.68857,1.53114 2.68857,1.53114 l 1.21527,2.94101 c 0,0 0.75231,2.05529 -1.30618,2.67284 z"
     id="path3788"
     inkscape:connector-curvature="0"
     sodipodi:nodetypes="csssssccc" />
  <ellipse
     style="fill:#ffffff;fill-opacity:1;stroke:none;stroke-width:1.00605845"
     id="path3166"
     transform="matrix(1,0,-0.328926,0.9443557,0,0)"
     cx="444.82175"
     cy="384.45444"
     rx="45.842033"
     ry="39.594604" />
  <ellipse
     style="fill:#9ab5c3;fill-opacity:1;stroke:none;stroke-width:1.05996227"
     id="path3944"
     transform="matrix(1,0,-0.11790494,0.99302489,0,0)"
     cx="534.49207"
     cy="485.21661"
     rx="40.254448"
     ry="75.400192" />
  <path
     style="fill:#5d7e7e;fill-opacity:1;stroke:none;stroke-width:1.11844826"
     d="m 535.97715,208.51002 c 0,0 -8.43066,21.74226 64.33937,-1.33115 14.8099,-4.69583 -20.41111,-6.21209 -2.66232,-7.09952 17.74879,-0.88745 70.99515,16.86134 62.56448,1.77487 -8.43067,-15.08646 4.4372,-23.07343 -13.31159,-29.2855 -17.74879,-6.21207 -59.90216,-15.97391 -72.32632,-11.09299 -12.42415,4.88092 -14.64275,1.33115 -18.19251,9.31811 -3.54975,7.98695 -20.41111,37.71618 -20.41111,37.71618 z"
     id="path4042"
     inkscape:connector-curvature="0"
     sodipodi:nodetypes="cssssssc" />
  <path
     style="fill:#1a1a1a;stroke:none;stroke-width:1.11844826"
     d="m 640.10949,238.86136 c 0,0 -5.87814,-33.06398 -10.45715,-48.20992 -4.579,-15.14593 -9.58808,-32.47738 -9.58808,-32.47738 4.32064,0.89527 8.35775,2.07255 12.40592,3.12351 0,0 9.27886,22.54661 15.14595,44.49981 4.80059,17.96261 8.01244,30.78048 8.01244,30.78048 z"
     id="path3211"
     inkscape:connector-curvature="0"
     sodipodi:nodetypes="csccscc" />
  <path
     style="fill:#b82e37;fill-opacity:1;stroke:none;stroke-width:1.11844826"
     d="m 694.223,376.70295 c 0,0 -22.67245,5.79994 -38.49044,12.12714 -15.81798,6.32718 -127.07116,38.49043 -127.07116,44.81762 0,6.32719 0.97671,19.97775 0.97671,19.97775 0,0 9.04135,-0.4689 42.78639,-14.17782 33.74504,-13.70892 111.25317,-36.38137 112.3077,-38.49043 1.05453,-2.10907 9.4908,-24.25426 9.4908,-24.25426 z"
     id="path3356"
     inkscape:connector-curvature="0"
     sodipodi:nodetypes="csscssc" />
  <path
     style="fill:#c42e37;fill-opacity:1;stroke:none;stroke-width:1.11844826"
     d="m 534.45387,269.89429 7.53409,-1.46381 c 0,0 0.59468,1.4867 2.97337,-0.29734 2.37871,-1.78403 10.40684,-11.89351 10.40684,-11.89351 0,0 -4.40062,-8.20654 -5.05475,-17.24561 -1.66392,-19.12597 17.99167,-19.21563 37.76192,-16.94826 16.34763,3.5235 28.97096,15.88697 23.4897,28.84178 -4.90413,10.32945 -22.72101,7.88373 -37.46459,8.6228 0,0 -14.56955,16.35359 -15.46157,18.43496 -0.89201,2.08136 -1.48669,6.24409 -1.48669,6.24409 0,0 -5.94675,3.27073 -7.13611,4.75741 -1.18935,1.48669 -6.33067,2.70499 -9.81215,-3.27071 -8.24313,-14.14872 -5.75006,-15.7818 -5.75006,-15.7818 z"
     id="path3786"
     inkscape:connector-curvature="0"
     sodipodi:nodetypes="ccscccccscssc" />
  <ellipse
     style="fill:#9ab5c3;fill-opacity:1;stroke:none;stroke-width:1.07645416"
     id="path3946"
     transform="matrix(1,0,-0.07238017,0.99737712,0,0)"
     cx="752.39453"
     cy="388.05853"
     rx="16.624819"
     ry="48.160286" />
  <path
     style="fill:#455e5e;fill-opacity:1;stroke:none;stroke-width:1.11844826"
     d="m 458.61896,258.98428 c 45.78989,-54.44079 34.16734,-67.62253 45.05814,-95.19389 3.39518,-18.46242 -26.6661,17.16036 -37.64757,35.86353 -2.28721,4.11699 11.3446,-38.105 -3.75103,-17.97751 -15.09561,20.1275 -21.80382,42.15363 -19.80728,30.41996 6.64577,-39.05703 -44.32622,43.59432 -44.32622,46.33899 0,2.74466 60.47396,0.54892 60.47396,0.54892 z"
     id="path4134"
     inkscape:connector-curvature="0"
     sodipodi:nodetypes="cccsssc" />
  <path
     style="fill:#da2e37;fill-opacity:1;stroke:none;stroke-width:1.11844826"
     d="m 46.383452,488.67822 c 0,0 37.200941,11.01971 74.282558,19.11986 76.77504,16.77084 142.3567,27.85509 160.76705,29.52875 18.41035,1.67367 102.97984,-7.17109 106.32718,-7.17109 3.34733,0 11.15778,-1.11578 3.90522,2.78944 -7.25256,3.90523 -46.80684,10.13182 -57.38342,11.45032 -30.23696,3.76943 -54.31413,6.20763 -113.48132,-6.50249 -17.45428,-3.74946 -18.32741,-2.02334 -54.03234,-10.94957 -35.70491,-8.92623 -53.86353,-8.47267 -112.57448,-29.89688 -6.482581,-2.36556 -7.810448,-8.36834 -7.810448,-8.36834 z"
     id="path4138"
     inkscape:connector-curvature="0"
     sodipodi:nodetypes="cssssssssc" />
  <path
     style="fill:#e22e37;fill-opacity:1;stroke:none;stroke-width:1.11844826"
     d="m 562.01024,250.07329 c -6.4225,-2.182 -9.47422,-4.5355 -9.79843,-9.90821 -0.23845,-3.95131 -1.23509,-7.73993 3.73274,-12.57054 5.40333,-3.54065 14.03344,-6.63636 34.41801,-2.96423 10.51487,3.27474 18.76643,8.41368 19.07873,19.8166 -4.10815,15.7508 -30.14135,11.05265 -47.43105,5.62638 z"
     id="path4140"
     inkscape:connector-curvature="0"
     sodipodi:nodetypes="cscccc" />
  <path
     style="fill:#c82e37;fill-opacity:1;stroke:none;stroke-width:1.11844826"
     d="m 274.22825,446.34379 c 0,0 -0.91974,3.07923 -4.12212,2.82594 -16.30592,-1.28972 -77.7506,-7.61295 -129.16305,-15.75327 -51.698255,-8.18556 -86.157263,-16.23452 -94.571987,-18.27195 -1.324153,-0.32061 -0.9757,-2.54774 -0.9757,-2.54774 0,0 1.963995,-10.90856 4.955676,-10.90856 2.99167,0 58.323971,11.22566 88.739361,14.71594 30.41539,3.4903 126.6614,17.6939 133.14337,17.6939 6.48197,0 1.99445,12.24574 1.99445,12.24574 z"
     id="path3303"
     inkscape:connector-curvature="0"
     sodipodi:nodetypes="cssscsssc" />
  <ellipse
     transform="matrix(1,0,-0.47987373,0.87733757,0,0)"
     id="path4073"
     style="fill:#ffffff;fill-opacity:1;stroke:none;stroke-width:0.40725669"
     cx="260.78708"
     cy="386.98703"
     rx="10.131211"
     ry="33.162971" />
  <path
     style="fill:#036765;fill-opacity:1;stroke:none;stroke-width:1.11844826"
     d="m 204.16804,244.16034 c 0,0 35.94342,-29.07799 42.92695,-33.59674 6.98352,-4.51875 30.80967,-26.29092 27.1125,-15.19944 -3.69715,11.09148 0.41081,7.80511 12.73466,-2.46477 12.32387,-10.26989 47.87469,-28.20778 47.87469,-28.20778 0,0 18.89659,-11.09148 8.21592,3.69716 -10.68069,14.78864 -56.5014,55.73108 -63.89572,59.42824 -7.39432,3.69716 20.12898,-29.98807 -0.41079,-11.91307 -20.53978,18.075 -34.41094,29.90699 -34.41094,29.90699 0,0 -6.7887,8.59102 -24.11144,8.67583 -25.13271,0.12304 -16.03583,-10.32642 -16.03583,-10.32642 z"
     id="path3275"
     inkscape:connector-curvature="0"
     sodipodi:nodetypes="cssscssscsc" />
  <ellipse
     transform="matrix(1,0,-0.10923502,0.99401595,0,0)"
     id="path4037"
     style="fill:#c1c1c1;fill-opacity:1;stroke:none;stroke-width:0.77289104"
     cx="533.17322"
     cy="483.74347"
     rx="28.252487"
     ry="57.119633" />
  <ellipse
     transform="matrix(1,0,-0.05757754,0.99834104,0,0)"
     id="path4039"
     style="fill:#cccccc;fill-opacity:1;stroke:none;stroke-width:0.70778441"
     cx="747.16357"
     cy="386.80411"
     rx="9.7494287"
     ry="35.504036" />
</svg>
